<svg width="144" height="144" viewBox="0 0 144 144" fill="none" xmlns="http://www.w3.org/2000/svg">
  <rect width="144" height="144" rx="24" fill="#04a784"/>
  <path d="M36 48C36 41.3726 41.3726 36 48 36H96C102.627 36 108 41.3726 108 48V96C108 102.627 102.627 108 96 108H48C41.3726 108 36 102.627 36 96V48Z" fill="white"/>
  <path d="M60 72C60 65.3726 65.3726 60 72 60H72C78.6274 60 84 65.3726 84 72V84C84 90.6274 78.6274 96 72 96H72C65.3726 96 60 90.6274 60 84V72Z" fill="#04a784"/>
  <circle cx="72" cy="78" r="6" fill="white"/>
</svg> 